<?xml version="1.0" standalone="no"?><!DOCTYPE svg PUBLIC "-//W3C//DTD SVG 1.1//EN" "http://www.w3.org/Graphics/SVG/1.1/DTD/svg11.dtd"><svg t="1634721858666" class="icon" viewBox="0 0 1024 1024" version="1.1" xmlns="http://www.w3.org/2000/svg" p-id="7088" xmlns:xlink="http://www.w3.org/1999/xlink" width="200" height="200"><defs><style type="text/css"></style></defs><path d="M924.09 552.8c-19.08 34.27-37.24 65.06-66.22 95.05-17.47 18.07-38.12 34.87-62.33 50.67a322.9 322.9 0 0 0-13.85-40c3.11-2.77 6.27-5.69 9.43-8.76 42.08-40.82 65-88.07 66.17-136.62 1.3-52.26 14.36-117.33 46.85-128.72 6.22-2.19 18.56-3.59 31.29 11.53C958.23 423 963.56 482 924.09 552.8z" fill="#9B9B9B" p-id="7089"></path><path d="M637.84 902.65c-47.59 12-109.18 17.8-186.58 17.8a18.05 18.05 0 0 0-18.05 17.94q-13.95-0.17-27.58-0.61A18.06 18.06 0 0 0 388.48 919c-5.86-0.29-11.68-0.62-17.29-1A18 18 0 0 0 352 934.68q-11-0.95-21.63-2.17A18 18 0 0 0 315 912.37a462.61 462.61 0 0 1-61.31-12.59c-104.52-135.87 0.82-309.54 31-353.67 44.46 22 101.34 33.53 166.6 33.53 62.09 0 116.57-10.42 160-30.39 32.8 49.08 132.42 220.13 26.55 353.4z" fill="#FFFFFF" p-id="7090"></path><path d="M253.71 899.78c-29.81-8.47-53.71-19.63-72.33-33.68-32.09-24.21-47.7-57.12-47.7-100.62 0-31.94 8.55-67.43 24.73-102.63 16.29-35.47 40-69.92 68.55-99.64a373.11 373.11 0 0 1 33.55-30.9 226.42 226.42 0 0 0 24.15 13.8c-30.13 44.13-135.47 217.8-30.95 353.67zM768.85 765.48c0 30.41-7.47 55.23-22.82 75.88-14.24 19.16-35.93 35-64.45 47a303.89 303.89 0 0 1-43.74 14.3c105.87-133.27 6.25-304.32-26.58-353.4A229.74 229.74 0 0 0 642 532.31a374.43 374.43 0 0 1 94.89 115.85q3.81 7.3 7.2 14.69c0.29 0.61 0.57 1.24 0.85 1.85q3.85 8.55 7.11 17.08a273.27 273.27 0 0 1 11.06 36.1q2.16 9.43 3.53 18.66c1 6.56 1.61 13 1.93 19.37q0.28 4.85 0.28 9.57z" fill="#9B9B9B" p-id="7091"></path><path d="M405.63 937.78v0.16a18.06 18.06 0 0 1-18 17.17h-0.89c-6.07-0.29-12.1-0.64-17.91-1A18.06 18.06 0 0 1 352 934.87a1.23 1.23 0 0 1 0-0.19 18 18 0 0 1 19.18-16.63c5.61 0.36 11.43 0.69 17.29 1a18.06 18.06 0 0 1 17.16 18.73z" fill="#303030" p-id="7092"></path><path d="M963.05 372.63c-19.22-22.82-45.71-31.17-70.86-22.33-14.31 5-34.61 18.11-50 51.94-12.79 28.06-19.84 65.06-21 110-1.18 47.41-28.36 85.38-55.35 111.58l-0.64 0.62a409 409 0 0 0-63.6-86.2 417.48 417.48 0 0 0-30.68-28.87 181.11 181.11 0 0 0 35.68-47.74c14.89-28.9 22.4-62.56 22.4-100.11a293.43 293.43 0 0 0-7.62-65.83A67.66 67.66 0 0 0 737 279.06c21.22-32 38.28-61 48.85-79.68a65.82 65.82 0 0 0-24.18-89.08C711.58 81.23 644 82 596.11 87.67a61.34 61.34 0 0 0-23.6 7.85q-6.06-3.31-12.3-6.33a247 247 0 0 0-217.89 0q-6.22 3-12.3 6.33a61.28 61.28 0 0 0-23.61-7.85c-47.87-5.67-115.47-6.44-165.6 22.63a65.82 65.82 0 0 0-24.17 89.08c5.29 9.35 12.2 21.27 20.43 34.85s17.81 28.84 28.41 44.83a67.74 67.74 0 0 0 15.64 16.63 292.86 292.86 0 0 0-7.62 65.83c0 37.55 7.53 71.21 22.41 100.06a180.9 180.9 0 0 0 35.68 47.73 419.79 419.79 0 0 0-30.68 28.88C136.2 605.56 97.57 690.53 97.57 765.48c0 54.82 20.89 98.37 62.07 129.45 35 26.39 84.14 43.78 150.31 53.18a18 18 0 0 0 20.41-15.33 2.45 2.45 0 0 0 0-0.27A18 18 0 0 0 315 912.37a462.61 462.61 0 0 1-61.31-12.59c-29.81-8.47-53.71-19.63-72.33-33.68-32.09-24.21-47.7-57.12-47.7-100.62 0-31.94 8.55-67.43 24.73-102.63 16.29-35.47 40-69.92 68.55-99.64a373.11 373.11 0 0 1 33.55-30.9 226.42 226.42 0 0 0 24.15 13.8c44.46 22 101.34 33.53 166.6 33.53 62.09 0 116.57-10.42 160-30.39A229.74 229.74 0 0 0 642 532.31a374.43 374.43 0 0 1 94.89 115.85q3.81 7.3 7.2 14.69c0.29 0.61 0.57 1.24 0.85 1.85q3.85 8.55 7.11 17.08a273.27 273.27 0 0 1 11.06 36.1q2.16 9.43 3.53 18.66c1 6.56 1.61 13 1.93 19.37q0.25 4.85 0.26 9.57c0 30.41-7.47 55.23-22.82 75.88-14.24 19.16-35.93 35-64.45 47a303.89 303.89 0 0 1-43.74 14.3c-47.59 12-109.18 17.8-186.58 17.8a18.05 18.05 0 0 0-18.05 17.94v0.12a18.06 18.06 0 0 0 18.05 18c110.13 0 187.77-11.11 244.34-34.94C768.16 891 805 838.51 805 765.48a235.46 235.46 0 0 0-1.85-29C834.89 717 861.59 696 883.83 673c32-33.13 51.46-66.05 71.81-102.58 51.12-91.8 35.95-163.91 7.41-197.79zM579.17 142.14a25.1 25.1 0 0 1 1.33-3.82 24.76 24.76 0 0 1 9-10.85c0.49-0.32 1-0.64 1.53-0.92a25.12 25.12 0 0 1 9.33-3c3.93-0.46 8-0.9 12.22-1.28 10.92-1 22.63-1.65 34.65-1.65 33.18 0 68.7 4.92 96.34 20.94a29.6 29.6 0 0 1 10.85 40.07c-9.9 17.5-25.64 44.3-45.22 74l-2.2 3.48a31.57 31.57 0 0 1-15.1 12.19 32.21 32.21 0 0 1-10.9 2.13c-1.25 0-2.49 0-3.7-0.11a31.43 31.43 0 0 1-22.78-12.94l-71.29-97.52a24.21 24.21 0 0 1-4.06-20.72zM207.3 269.79a32 32 0 0 1-11.72-10.67c-0.77-1.16-1.53-2.31-2.28-3.47-19.58-29.72-35.34-56.53-45.24-74a29.61 29.61 0 0 1 10.87-40.07c37.64-21.82 89.92-23 131-19.29 4.21 0.38 8.29 0.82 12.24 1.28a25.42 25.42 0 0 1 8.43 2.54 27.59 27.59 0 0 1 2.43 1.42 24.71 24.71 0 0 1 9 10.84 26.29 26.29 0 0 1 1.34 3.82 24.27 24.27 0 0 1-4.06 20.71L248 260.37a31.49 31.49 0 0 1-22.79 12.94 34.73 34.73 0 0 1-3.69 0.12 32.08 32.08 0 0 1-12.22-2.68c-0.67-0.29-1.3-0.62-2-0.96zM642 487a161.25 161.25 0 0 1-14.77 11.78q-1.22 0.87-2.46 1.71-6.84 4.67-14.35 8.85c-40.34 22.45-94.9 34.25-159.12 34.25s-118.78-11.8-159.12-34.25q-7.51-4.2-14.35-8.85a88.64 88.64 0 0 1-2.45-1.71A160.05 160.05 0 0 1 260.56 487c-21-18.86-35.55-42.23-43.58-69.9q-7.36-25.37-7.38-55.53a256 256 0 0 1 5.5-52.36c1.86 0.19 3.72 0.31 5.6 0.36h1.55a68 68 0 0 0 54.9-27.88l71.29-97.5a60.36 60.36 0 0 0 6.69-60.26c-0.11-0.25-0.22-0.49-0.34-0.73a217 217 0 0 1 69.73-21.5 209.45 209.45 0 0 1 52-0.18 216.64 216.64 0 0 1 71.23 21.68c-0.12 0.24-0.23 0.48-0.34 0.73a60.37 60.37 0 0 0 6.7 60.26l71.29 97.5a68 68 0 0 0 54.89 27.88h1.55c1.88 0 3.75-0.17 5.6-0.36a255.29 255.29 0 0 1 5.51 52.36q0 30.17-7.39 55.58A147.37 147.37 0 0 1 642 487z m282.09 65.8c-19.08 34.27-37.24 65.06-66.22 95.05-17.47 18.07-38.12 34.87-62.33 50.67a322.9 322.9 0 0 0-13.85-40c3.11-2.77 6.27-5.69 9.43-8.76 42.08-40.82 65-88.07 66.17-136.62 1.3-52.26 14.36-117.33 46.85-128.72 6.22-2.19 18.56-3.59 31.29 11.53C958.23 423 963.56 482 924.09 552.8z" fill="#303030" p-id="7093"></path><path d="M319.3 162.85L248 260.37a31.49 31.49 0 0 1-22.79 12.94 34.73 34.73 0 0 1-3.69 0.12 32.08 32.08 0 0 1-12.22-2.68c-0.68-0.29-1.36-0.62-2-1a32 32 0 0 1-11.72-10.67c-0.77-1.16-1.53-2.31-2.28-3.47-19.58-29.72-35.34-56.53-45.24-74a29.61 29.61 0 0 1 10.87-40.07c37.64-21.82 89.92-23 131-19.29 4.21 0.38 8.29 0.82 12.24 1.28a25.42 25.42 0 0 1 8.43 2.54 27.59 27.59 0 0 1 2.43 1.42 24.71 24.71 0 0 1 9 10.84 26.29 26.29 0 0 1 1.34 3.82 24.27 24.27 0 0 1-4.07 20.7zM424.52 101.68c-0.69 30.76-6.1 93.66-37 133.08-19.38 24.73-31.87 54.3-34.24 85.64-5.7 75.51-58.28 94.33-136.28 96.65q-7.36-25.37-7.38-55.53a256 256 0 0 1 5.5-52.36c1.86 0.19 3.72 0.31 5.6 0.36h1.55a68 68 0 0 0 54.9-27.88l71.29-97.5a60.36 60.36 0 0 0 6.69-60.26c-0.11-0.25-0.22-0.49-0.34-0.73a217 217 0 0 1 69.71-21.47zM692.93 361.52q0 30.17-7.39 55.58c-78.79-2.13-132.07-20.71-137.82-96.7-2.37-31.34-14.86-60.91-34.24-85.64-30.94-39.5-36.32-102.56-37-133.26a216.64 216.64 0 0 1 71.23 21.68c-0.12 0.24-0.23 0.48-0.34 0.73a60.37 60.37 0 0 0 6.7 60.26l71.29 97.5a68 68 0 0 0 54.89 27.88h1.55c1.88 0 3.75-0.17 5.6-0.36a255.29 255.29 0 0 1 5.53 52.33z" fill="#9B9B9B" p-id="7094"></path><path d="M685.54 417.1A147.37 147.37 0 0 1 642 487a161.25 161.25 0 0 1-14.77 11.78q-1.22 0.87-2.46 1.71-6.84 4.67-14.35 8.85c-40.34 22.45-94.9 34.25-159.12 34.25s-118.78-11.8-159.12-34.25q-7.51-4.2-14.35-8.85a88.64 88.64 0 0 1-2.45-1.71A160.05 160.05 0 0 1 260.56 487c-21-18.86-35.55-42.23-43.58-69.9 78-2.32 130.6-21.14 136.32-96.65 2.37-31.34 14.86-60.91 34.24-85.64 30.88-39.42 36.29-102.32 37-133.08a209.45 209.45 0 0 1 52-0.18c0.66 30.7 6 93.76 37 133.26 19.38 24.73 31.87 54.3 34.24 85.64 5.69 75.94 58.97 94.55 137.76 96.65z" fill="#FFFFFF" p-id="7095"></path><path d="M754.46 181.6c-9.9 17.5-25.64 44.3-45.22 74l-2.24 3.51a31.57 31.57 0 0 1-15.1 12.19 32.21 32.21 0 0 1-10.9 2.13c-1.25 0-2.49 0-3.7-0.11a31.43 31.43 0 0 1-22.78-12.94l-71.29-97.52a24.21 24.21 0 0 1-4.06-20.71 25.1 25.1 0 0 1 1.33-3.82 24.76 24.76 0 0 1 9-10.85c0.49-0.32 1-0.64 1.53-0.92a25.12 25.12 0 0 1 9.33-3c3.93-0.46 8-0.9 12.22-1.28 10.92-1 22.63-1.65 34.65-1.65 33.18 0 68.7 4.92 96.34 20.94a29.6 29.6 0 0 1 10.89 40.03z" fill="#9B9B9B" p-id="7096"></path></svg>